<svg width="210" height="157" viewBox="0 0 210 157" fill="none" xmlns="http://www.w3.org/2000/svg">
<g clip-path="url(#clip0_1_33)">
<path fill-rule="evenodd" clip-rule="evenodd" d="M92.1636 5.66724C92.1636 5.66724 91.2135 5.01469 89.596 4.75786C86.9369 4.33563 82.7926 4.38165 81.4633 6.43641C80.5669 7.82219 81.8526 8.88937 82.8279 9.46172C84.8809 10.6664 88.818 10.2064 91.0136 9.61575C92.8383 9.12488 94.6884 8.65048 96.7514 7.28402C99.4158 5.51907 103.835 3.00968 103.714 3.00095C105.72 1.82451 111.685 -0.25827 119.364 0.0268841C122.219 0.132879 124.479 0.233194 126.997 0.867959C129.073 1.39139 131.398 2.50143 133.265 4.3856C134.821 5.95653 135.151 7.99291 134.973 9.412C134.688 11.6808 132.944 13.3026 130.02 14.3901C125.581 16.0407 120.954 15.6967 118.164 15.6156C110.162 14.9358 108.331 9.51765 114.914 8.69301C118.149 15.4275 135.41 10.1733 126.964 6.02656C122.059 3.76723 112.264 6.38551 112.264 6.38551C109.006 7.62739 105.02 9.53909 100.964 11.8723C100.964 11.8723 98.645 13.4233 94.4541 14.1205C93.1595 14.3358 91.7997 14.4126 90.1631 14.4082C89.0903 14.4053 87.6414 14.3014 86.4133 14.026C75.6631 11.616 78.0631 5.97526 78.0631 5.97526C78.0631 5.97526 78.0631 3.15491 84.0132 2.23187C87.5802 1.67853 90.0764 1.9014 91.5551 2.40948C92.5081 2.73689 92.8278 3.05618 93.2134 3.46255C94.1419 4.44091 92.1947 5.67825 92.1634 5.66748L92.1636 5.66724ZM55.5642 25.2048C56.6104 31.1102 57.8853 36.6599 59.7088 42.1657C58.0489 43.1432 55.6739 44.9294 53.264 48.0748C48.8638 53.818 48.1166 62.7612 49.664 66.3295C51.0669 69.565 51.1673 73.2155 59.2644 77.5082C65.5801 80.8568 72.4286 77.5327 74.1514 76.7772C72.4107 76.8942 64.2878 74.5364 60.2643 68.8935C58.0484 65.7855 57.1386 62.4257 56.8548 59.2352C56.3992 54.1143 57.9419 49.9268 61.1644 46.6386C61.2025 46.5997 61.2381 46.5651 61.2758 46.527C62.4467 49.5441 63.8068 52.5729 65.4122 55.6647L65.3644 55.6636L77.2649 72.9954C79.6295 77.7101 80.3384 80.2421 80.865 82.5334C80.9255 82.5237 83.005 87.4893 92.3377 90.4201C96.458 91.714 101.911 92.8589 109.366 92.5836C133.275 91.7009 135.218 82.1985 136.166 82.5332C136.941 78.4789 138.092 75.2722 139.666 72.5851L150.167 57.4066L152.27 53.3003C155.896 46.3742 158.564 36.9006 160.103 30.0535C160.663 27.5588 161.137 25.1142 160.667 25.6136C158.198 28.2368 155.109 31.4789 139.147 33.9681C131.929 35.0937 121.926 36.7758 108.065 36.4846C59.2611 35.4635 55.5609 25.2083 55.5609 25.2083L55.5642 25.2048ZM74.1518 76.7775C74.7786 76.7324 74.9759 76.5824 74.6651 76.5857C74.5977 76.5865 74.4143 76.6624 74.1518 76.7775ZM63.5655 8.1809C63.5655 8.1809 57.6654 12.2831 63.9655 16.0778C70.2656 19.8724 79.8659 21.2055 79.8659 21.2055C87.88 23.0479 103.638 23.7457 119.566 23.1541C123.114 23.0223 144.014 21.049 151.066 17.3084C156.788 14.274 157.387 12.5919 155.166 9.41156C166.819 15.0343 158.183 19.751 154.966 21.3082C153.079 22.2938 149.696 23.3228 145.166 24.3849C135.086 27.2911 123.364 28.0912 111.164 28.282C97.9301 28.4683 84.1104 27.6628 68.4627 23.7695C62.8694 21.8741 55.898 20.5736 54.7623 15.2574C55.0296 11.6386 59.4021 9.93657 63.5626 8.18109L63.5655 8.1809Z" fill="#CE9760"/>
<path fill-rule="evenodd" clip-rule="evenodd" d="M40.9396 146.314C41.2747 149.299 40.558 151.939 38.4517 152.522C37.3762 152.82 35.8038 151.581 35.798 150.439C35.7867 148.207 39.002 146.83 40.9396 146.314ZM78.3775 120.282C78.2379 120.282 78.1005 120.284 77.9658 120.288C72.3508 121.004 69.5875 124.15 67.8897 128.623C66.4828 132.33 65.0122 136.043 66.8945 141.678C67.7589 144.266 73.575 145.923 77.3851 144.4C80.4147 143.188 82.7266 141.025 84.0411 139.277C84.1845 140.074 84.3971 140.91 84.6923 141.793C85.5566 144.381 91.3686 146.102 94.934 144.047C98.2872 142.115 98.0994 140.453 98.7072 138.264C97.0513 141.378 91.1781 141.767 90.5803 138.774C90.2552 137.146 90.0544 135.674 90.8289 134.692C94.6121 134.767 96.8549 132.894 98.9975 130.95C100.318 129.254 102.099 128.092 101.237 123.296C100.801 120.869 97.9176 120.332 95.7634 120.404C90.1484 121.12 87.3854 124.266 85.6875 128.739C84.7302 131.261 83.7444 133.787 83.8046 136.919C82.2036 138.767 80.5848 140.59 78.1733 141.295C75.2304 141.846 73.1325 141.333 72.6168 138.829C72.4161 137.18 72.2571 135.559 73.0316 134.576C76.8149 134.651 79.0576 132.779 81.2002 130.834C82.5207 129.138 84.3011 127.976 83.4391 123.18C83.0302 120.905 80.4709 120.291 78.3775 120.282ZM79.0439 122.797C81.3676 122.826 80.5 126.216 79.4999 128.326C77.1094 131.79 75.066 132.673 73.1143 132.876C74.1674 127.975 75.935 122.759 79.0439 122.797ZM96.8415 122.913C99.1652 122.941 98.2978 126.331 97.2977 128.441C94.9073 131.905 92.8638 132.789 90.9121 132.991C91.9652 128.09 93.7326 122.875 96.8415 122.913ZM66.8111 108.629C64.1497 108.598 61.3062 110.118 60.2921 112.042C59.5809 108.826 55.7033 108.735 55.7183 108.674C55.7183 108.674 50.2156 108.248 47.8605 113.846C44.9899 120.67 45.6239 127.772 44.2247 127.678L40.1423 128.417C40.2149 128.35 40.2871 128.303 40.351 128.291C40.3142 125.488 39.8358 123.191 38.7921 121.943C37.1014 119.922 34.9031 119.612 30.9878 120.672C29.4235 121.095 28.1454 122.283 27.0146 123.309C25.3979 124.777 23.8204 127.999 23.3491 129.362C21.664 135.772 22.3521 135.315 21.8831 137.179C21.8799 137.196 21.8776 137.217 21.8746 137.235C21.0506 138.177 17.6253 141.649 12.4519 140.912C6.48099 140.062 7.97356 130.706 7.97356 130.706C7.81153 129.941 9.87878 111.729 17.4279 111.145C20.2851 110.924 21.069 113.396 20.5776 115.198C20.0854 117.003 18.5402 118.54 18.5402 118.54C18.5402 118.992 20.7573 120.014 22.5694 119.65C24.0659 119.35 26.3839 111.826 21.2424 109.614C19.6357 108.923 18.0613 108.681 16.6561 108.674C13.5645 108.659 11.2908 109.784 11.2908 109.784C11.2908 109.784 5.25135 111.168 1.46656 123.969C0.389678 127.612 -0.0251375 131.123 0.00087056 134.051C0.0401613 138.475 1.31164 141.801 4.61973 144.075C9.52935 147.451 19.706 143.82 22.1519 139.351C22.6163 143.794 28.4586 146.92 33.7923 143.249C35.6582 142.083 37.1568 140.657 38.1264 138.863C39.5504 136.228 39.9799 132.508 40.1969 130.178C40.1616 130.167 40.1288 130.155 40.0975 130.142L44.518 129.241L41.3513 144.516C41.4355 144.067 31.4983 146.04 33.2591 152.755C33.8259 154.917 36.1927 156.706 38.3608 156.965C40.749 157.251 43.9568 155.761 44.8698 153.778C47.128 158.398 55.7171 157.64 57.5946 151.673L63.9276 122.626L68.0911 122.566L68.6775 121.002L64.1623 120.942C64.6293 116.829 65.4832 112.999 68.2669 113.004C70.1654 113.031 70.282 114.769 70.1434 115.71H72.1371C72.084 114.177 72.4676 112.12 70.5539 110.117C69.549 109.086 68.205 108.645 66.8111 108.629ZM56.6998 112.965C57.367 112.965 58.1096 113.294 58.8848 114.207C58.8848 114.207 58.3159 117.122 57.5762 120.882H52.6046L53.783 115.109C53.783 115.109 54.9949 112.965 56.6998 112.965ZM52.2368 122.686H57.2216C56.0823 128.459 54.5813 135.987 53.2937 142.147L48.0511 143.195L52.2368 122.686ZM53.088 143.123C52.3926 146.429 51.7821 149.219 51.3789 150.831C51.0669 152.079 49.1829 153.227 47.8101 152.953C47.1239 152.817 46.1696 152.415 46.3945 151.312L47.8411 144.224L53.088 143.123ZM35.1624 123.218C36.7171 123.205 36.6402 125.894 36.4845 125.814C36.4845 125.814 33.0903 128.471 36.3672 130.926C36.4649 133.452 35.6488 137.645 32.9076 140.127C31.9796 140.967 29.5541 141.246 28.9788 139.285C28.901 139.02 28.2573 136.385 29.2512 132.259C29.7037 130.381 30.3613 126.97 32.204 125.092C33.559 123.712 34.506 123.224 35.1624 123.218ZM209.06 113.365L202.316 114.027L201.026 121.003L199.091 121.063L198.857 122.807H200.616L197.692 138.264C197.497 139.148 197.251 139.982 197.508 141.33C197.852 143.14 199.697 145.015 201.495 145.058C203.73 145.112 205.825 142.528 206.656 140.668C205.592 141.206 203.472 141.031 203.724 139.706L206.949 122.687L209.588 122.626L209.998 121.063H207.594L209.06 113.365ZM184.607 126.115L181.851 139.826C181.514 141.505 184.626 141.778 186.601 139.465C188.428 137.325 188.909 136.004 189.826 131.106C190.341 127.936 190.435 125.209 188.36 124.19C187.099 123.571 185.45 124.57 184.607 126.115ZM179.271 118.838L175.32 138.323C174.497 139.561 173.521 140.666 172.117 140.788C169.932 140.936 168.892 139.853 169.83 136.638L172.997 120.882L166.722 120.822L163.204 140.187C162.795 142.434 164.647 144.676 168.188 144.757C171.076 144.593 173.508 143.072 174.404 142.051L174.576 141.995L171.589 156.725L178.743 154.921L180.913 143.554C182.525 145.141 184.463 145.388 186.542 145.058C190.885 143.752 193.873 140.908 195.397 136.398C197.043 127.254 197.381 122.932 193.345 120.882C190.532 119.454 187.291 120.677 185.428 122.266L185.839 118.958L179.271 118.838ZM174.88 114.395C174.88 116.454 173.252 118.123 171.244 118.123C169.236 118.123 167.608 116.454 167.608 114.395C167.608 112.336 169.236 110.666 171.244 110.666C173.252 110.666 174.88 112.336 174.88 114.395ZM139.354 120.032C138.743 120.032 138.123 120.081 137.637 120.221C135.587 120.81 133.841 121.649 132.213 123.679C130.671 125.442 129.447 127.45 128.841 129.933C127.936 132.643 127.548 134.731 127.404 135.917C127.32 138.242 127.453 139.787 127.991 141.149C129.048 143.826 130.577 144.2 132.36 144.757C136.432 145.129 139.72 144.047 140.639 143.131C141.96 142.562 143.091 141.524 145.114 139.435L145.289 139.348L144.205 144.637L150.773 144.517L154.584 126.235C154.846 124.979 156.821 124.456 158.044 124.731C158.629 124.863 159.451 125.338 159.542 126.754C159.603 127.716 160.602 127.444 161.093 127.558C162.193 127.813 163.685 126.767 163.908 125.633C164.279 123.748 164.121 121.271 160.8 120.823C159.046 120.991 157.081 121.718 155.171 123.649L155.816 120.943L149.072 120.883L145.924 136.247L145.29 136.849C144.186 138.263 142.599 139.584 140.247 140.758C138.635 141.456 136.933 141.541 135.086 140.638C133.914 139.96 133.929 137.347 134.471 133.872C134.967 131.627 135.464 129.382 136.494 127.528C137.071 126.04 137.862 124.827 138.751 123.739C140.707 121.96 141.974 123.291 141.675 125.27C141.456 126.715 140.55 128.3 143.448 127.706C147.087 124.772 143.409 120.775 141.678 120.263C141.368 120.172 140.373 120.033 139.354 120.032ZM121.502 118.375C120.632 119.463 124.399 118.55 125.359 117.865C127.139 116.593 127.37 114.241 126.354 112.124C125.065 109.44 122.271 108.574 119.139 108.552C114.619 108.424 111.596 110.342 109.726 113.272C108.425 114.766 108.283 116.818 108.572 118.494C109.15 121.843 111.909 124.411 114.148 126.893C116.167 129.131 118.713 132.582 118.456 135.462C118.196 137.562 117.513 140.034 115.49 141.593C113.994 142.746 110.488 143.392 108.317 139.935C107.329 138.362 107.943 136.454 108.645 134.999C109.347 133.545 111.644 132.41 113.085 132.493C113.839 132.536 113.024 131.171 111.717 130.452C110.611 129.843 108.878 129.734 107.197 130.494C104.794 131.581 102.658 133.354 102.761 137.893C102.847 141.74 104.913 143.173 107.861 144.825C112.777 146.496 116.078 145.537 119.139 144.187C122.435 141.897 126.271 139.096 125.876 134.024C126.003 127.333 122.626 126.084 120.424 123.733C116.084 120.694 112.661 116.428 115.988 112.252C117.469 110.393 122.173 110.528 122.663 112.592C123.126 114.539 122.953 116.561 121.502 118.375Z" fill="#CE9760"/>
</g>
<defs>
<clipPath id="clip0_1_33">
<rect width="210" height="157" fill="white"/>
</clipPath>
</defs>
</svg>
