<svg width="23" height="24" viewBox="0 0 23 24" fill="none" xmlns="http://www.w3.org/2000/svg">
<g clip-path="url(#clip0_2_147)">
<path d="M22.9879 12.2244C22.9879 11.2412 22.9097 10.5236 22.7403 9.77954H11.7291V14.2175H18.1924C18.0622 15.3204 17.3585 16.9814 15.7948 18.0975L15.7728 18.246L19.2544 20.9962L19.4956 21.0208C21.7108 18.9346 22.9879 15.8652 22.9879 12.2244Z" fill="#F5F5F5"/>
<path d="M11.729 23.9176C14.8955 23.9176 17.5538 22.8545 19.4955 21.0209L15.7947 18.0976C14.8043 18.8018 13.4751 19.2934 11.729 19.2934C8.62767 19.2934 5.99543 17.2074 5.0571 14.324L4.91957 14.3359L1.29942 17.1927L1.25208 17.3269C3.18064 21.2334 7.14207 23.9176 11.729 23.9176Z" fill="#F5F5F5"/>
<path d="M5.0572 14.324C4.80961 13.5799 4.66633 12.7826 4.66633 11.9589C4.66633 11.135 4.80961 10.3378 5.04417 9.59366L5.03761 9.43519L1.37209 6.53247L1.25217 6.59064C0.45731 8.21174 0.0012207 10.0322 0.0012207 11.9589C0.0012207 13.8855 0.45731 15.7059 1.25217 17.327L5.0572 14.324Z" fill="#D9D9D9"/>
<path d="M11.729 4.62403C13.9312 4.62403 15.4167 5.59402 16.2638 6.40461L19.5736 3.10928C17.5409 1.1826 14.8955 0 11.729 0C7.14207 0 3.18064 2.68406 1.25208 6.59057L5.04408 9.59359C5.99543 6.7102 8.62767 4.62403 11.729 4.62403Z" fill="#F5F5F5"/>
</g>
<defs>
<clipPath id="clip0_2_147">
<rect width="23" height="24" fill="white"/>
</clipPath>
</defs>
</svg>
