<svg width="30" height="24" viewBox="0 0 30 24" fill="none" xmlns="http://www.w3.org/2000/svg">
<path d="M9.90115 24C20.8158 24 26.7847 15.0474 26.7847 7.28404C26.7847 7.02979 26.7795 6.77671 26.7679 6.52467C27.9293 5.69264 28.9316 4.66245 29.7279 3.4824C28.6646 3.95041 27.5205 4.2654 26.3202 4.40742C27.5453 3.6801 28.4858 2.52946 28.9296 1.15791C27.7648 1.84206 26.4904 2.32434 25.1616 2.58398C24.0787 1.44201 22.5371 0.727783 20.8301 0.727783C17.5532 0.727783 14.8958 3.35883 14.8958 6.60199C14.8958 7.06307 14.948 7.51141 15.0498 7.9416C10.118 7.6959 5.74477 5.35809 2.818 1.80331C2.29086 2.6999 2.0136 3.71888 2.01452 4.75621C2.01452 6.79451 3.06208 8.59386 4.65517 9.64658C3.71284 9.61809 2.79119 9.36608 1.96773 8.91176C1.96684 8.93643 1.96684 8.96046 1.96684 8.98681C1.96684 11.832 4.01223 14.2076 6.72743 14.7459C6.21748 14.8834 5.69127 14.9529 5.16273 14.9526C4.78103 14.9526 4.40904 14.9154 4.04751 14.8467C4.80296 17.181 6.99355 18.8797 9.59076 18.9272C7.55978 20.5033 5.00136 21.442 2.22074 21.442C1.74772 21.4424 1.27509 21.4152 0.805298 21.3606C3.43149 23.0272 6.54984 23.9996 9.90145 23.9996" fill="#F5F5F5"/>
</svg>
